<mxfile host="app.diagrams.net" modified="2022-05-04T07:59:58.253Z" agent="5.0 (Windows NT 10.0; WOW64) AppleWebKit/537.36 (KHTML, like Gecko) Chrome/100.0.4896.136 Safari/537.36" etag="g0fWT4Y2YVLBxvHe6hN6" version="17.5.0" type="github">
  <diagram id="6a731a19-8d31-9384-78a2-239565b7b9f0" name="Page-1">
    <mxGraphModel dx="2130" dy="1854" grid="1" gridSize="10" guides="1" tooltips="1" connect="1" arrows="1" fold="1" page="1" pageScale="1" pageWidth="1169" pageHeight="827" background="none" math="0" shadow="0">
      <root>
        <mxCell id="0" />
        <mxCell id="1" parent="0" />
        <mxCell id="1430" value="" style="edgeStyle=none;endArrow=none;strokeWidth=3;strokeColor=#F08E81;html=1;fontSize=12;" parent="1" source="1352" target="1419" edge="1">
          <mxGeometry x="31" y="106.5" width="100" height="100" as="geometry">
            <mxPoint x="31" y="206.5" as="sourcePoint" />
            <mxPoint x="131" y="106.5" as="targetPoint" />
          </mxGeometry>
        </mxCell>
        <mxCell id="1429" value="" style="edgeStyle=none;endArrow=none;strokeWidth=3;strokeColor=#F08E81;html=1;fontSize=12;" parent="1" source="1352" target="1418" edge="1">
          <mxGeometry x="31" y="106.5" width="100" height="100" as="geometry">
            <mxPoint x="31" y="206.5" as="sourcePoint" />
            <mxPoint x="131" y="106.5" as="targetPoint" />
          </mxGeometry>
        </mxCell>
        <mxCell id="1464" value="" style="edgeStyle=none;endArrow=none;strokeWidth=3;strokeColor=#A29DC5;html=1;fontSize=12;" parent="1" source="1354" target="1461" edge="1">
          <mxGeometry x="251" y="-103.5" width="100" height="100" as="geometry">
            <mxPoint x="251" y="-3.5" as="sourcePoint" />
            <mxPoint x="351" y="-103.5" as="targetPoint" />
          </mxGeometry>
        </mxCell>
        <mxCell id="1431" value="" style="edgeStyle=none;endArrow=none;strokeWidth=3;strokeColor=#F08E81;html=1;fontSize=12;" parent="1" source="1352" target="1412" edge="1">
          <mxGeometry x="31" y="106.5" width="100" height="100" as="geometry">
            <mxPoint x="31" y="206.5" as="sourcePoint" />
            <mxPoint x="131" y="106.5" as="targetPoint" />
          </mxGeometry>
        </mxCell>
        <mxCell id="1482" value="" style="edgeStyle=none;endArrow=none;strokeWidth=3;strokeColor=#F5AF58;html=1;exitX=0.844;exitY=0.885;exitDx=0;exitDy=0;exitPerimeter=0;fontSize=12;" parent="1" source="p5eIivycjOICqXlBfG3N-1549" target="1470" edge="1">
          <mxGeometry x="243.5" y="39" width="100" height="100" as="geometry">
            <mxPoint x="1209.756534487969" y="1197.3031771221454" as="sourcePoint" />
            <mxPoint x="343.5" y="39" as="targetPoint" />
          </mxGeometry>
        </mxCell>
        <mxCell id="1351" value="&lt;span style=&quot;background-color: rgb(255, 255, 255); font-size: 12px;&quot;&gt;&lt;font color=&quot;#000000&quot; style=&quot;font-size: 12px;&quot;&gt;Tính năng nổi bật&lt;/font&gt;&lt;/span&gt;" style="ellipse;whiteSpace=wrap;html=1;shadow=0;fontFamily=Helvetica;fontSize=12;fontColor=#FFFFFF;align=center;strokeWidth=3;fillColor=#F08705;strokeColor=none;gradientColor=none;" parent="1" vertex="1">
          <mxGeometry x="583.5" y="506.5" width="120" height="120" as="geometry" />
        </mxCell>
        <mxCell id="EeNC3uTI6yrcS8-O0AN2-1543" style="edgeStyle=orthogonalEdgeStyle;rounded=0;orthogonalLoop=1;jettySize=auto;html=1;entryX=0.5;entryY=1;entryDx=0;entryDy=0;fontSize=6;" parent="1" source="1352" target="EeNC3uTI6yrcS8-O0AN2-1542" edge="1">
          <mxGeometry relative="1" as="geometry" />
        </mxCell>
        <mxCell id="1352" value="&lt;span style=&quot;background-color: rgb(255, 255, 255); font-size: 12px;&quot;&gt;&lt;font color=&quot;#000000&quot; style=&quot;font-size: 12px;&quot;&gt;Toàn vẹn dữ liệu&lt;/font&gt;&lt;/span&gt;" style="ellipse;whiteSpace=wrap;html=1;shadow=0;fontFamily=Helvetica;fontSize=12;fontColor=#FFFFFF;align=center;strokeWidth=3;fillColor=#66FF66;strokeColor=none;" parent="1" vertex="1">
          <mxGeometry x="1380" y="466.5" width="120" height="120" as="geometry" />
        </mxCell>
        <mxCell id="1353" value="&lt;span style=&quot;box-sizing: border-box; font-weight: bolder; color: rgb(27, 27, 27); font-size: 12px; letter-spacing: -0.054px; text-align: left; background-color: rgb(255, 255, 255);&quot;&gt;Kiểu dữ liệu&lt;/span&gt;" style="ellipse;whiteSpace=wrap;html=1;shadow=0;fontFamily=Helvetica;fontSize=12;fontColor=#FFFFFF;align=center;strokeWidth=3;fillColor=#A72CD3;strokeColor=none;" parent="1" vertex="1">
          <mxGeometry x="1500" y="771.5" width="120" height="120" as="geometry" />
        </mxCell>
        <mxCell id="1354" value="&lt;font color=&quot;#000000&quot; style=&quot;background-color: rgb(255, 255, 255); font-size: 12px;&quot;&gt;Bảo mật&lt;/font&gt;" style="ellipse;whiteSpace=wrap;html=1;shadow=0;fontFamily=Helvetica;fontSize=12;fontColor=#FFFFFF;align=center;strokeWidth=3;fillColor=#736ca8;strokeColor=none;" parent="1" vertex="1">
          <mxGeometry x="1430" y="1150" width="120" height="120" as="geometry" />
        </mxCell>
        <mxCell id="1360" style="endArrow=none;strokeWidth=6;strokeColor=#f08705;html=1;fontSize=12;" parent="1" source="1515" target="1351" edge="1">
          <mxGeometry relative="1" as="geometry" />
        </mxCell>
        <mxCell id="1361" style="endArrow=none;strokeWidth=6;strokeColor=#E85642;html=1;fontSize=12;" parent="1" source="1515" target="1352" edge="1">
          <mxGeometry relative="1" as="geometry" />
        </mxCell>
        <mxCell id="1362" style="endArrow=none;strokeWidth=6;strokeColor=#1699D3;html=1;fontSize=12;" parent="1" source="1515" target="1353" edge="1">
          <mxGeometry relative="1" as="geometry">
            <Array as="points">
              <mxPoint x="1440" y="830" />
            </Array>
          </mxGeometry>
        </mxCell>
        <mxCell id="1364" style="endArrow=none;strokeWidth=6;strokeColor=#736ca8;html=1;fontSize=12;" parent="1" source="1515" target="1354" edge="1">
          <mxGeometry relative="1" as="geometry" />
        </mxCell>
        <mxCell id="1365" value="" style="edgeStyle=none;endArrow=none;strokeWidth=6;strokeColor=#F08705;html=1;entryX=0.5;entryY=0;entryDx=0;entryDy=0;fontSize=12;" parent="1" source="1515" target="p5eIivycjOICqXlBfG3N-1549" edge="1">
          <mxGeometry x="181" y="226.5" width="100" height="100" as="geometry">
            <mxPoint x="181" y="326.5" as="sourcePoint" />
            <mxPoint x="1160" y="1090" as="targetPoint" />
          </mxGeometry>
        </mxCell>
        <mxCell id="1390" value="&lt;div style=&quot;font-size: 12px;&quot;&gt;&lt;font color=&quot;#1b1b1b&quot; style=&quot;font-size: 12px;&quot;&gt;&lt;span style=&quot;letter-spacing: -0.054px; font-size: 12px;&quot;&gt;Truy vấn xử lý song song&amp;nbsp;&lt;/span&gt;&lt;/font&gt;&lt;/div&gt;&lt;div style=&quot;font-size: 12px;&quot;&gt;&lt;font color=&quot;#1b1b1b&quot; style=&quot;font-size: 12px;&quot;&gt;&lt;span style=&quot;letter-spacing: -0.054px; font-size: 12px;&quot;&gt;&lt;font style=&quot;font-size: 12px;&quot;&gt;(parallel query)&lt;/font&gt;&lt;/span&gt;&lt;br style=&quot;font-size: 12px;&quot;&gt;&lt;/font&gt;&lt;/div&gt;" style="rounded=1;fillColor=#f5af58;strokeColor=none;strokeWidth=3;shadow=0;html=1;fontColor=#FFFFFF;fontSize=12;" parent="1" vertex="1">
          <mxGeometry x="140" y="438.5" width="153.5" height="41.5" as="geometry" />
        </mxCell>
        <mxCell id="1391" value="&lt;font color=&quot;#000000&quot; style=&quot;font-size: 12px;&quot;&gt;Tính toàn vẹn của các giao dịch &lt;br style=&quot;font-size: 12px;&quot;&gt;(integrity transactions)&lt;/font&gt;" style="rounded=1;fillColor=#f5af58;strokeColor=none;strokeWidth=3;shadow=0;html=1;fontColor=#FFFFFF;fontSize=12;" parent="1" vertex="1">
          <mxGeometry x="220" y="340" width="183.5" height="51.5" as="geometry" />
        </mxCell>
        <mxCell id="1392" value="&lt;font color=&quot;#000000&quot; style=&quot;font-size: 12px;&quot;&gt;Câu truy vấn phức hợp &lt;br style=&quot;font-size: 12px;&quot;&gt;(complex query)&lt;/font&gt;" style="rounded=1;fillColor=#f5af58;strokeColor=none;strokeWidth=3;shadow=0;html=1;fontColor=#FFFFFF;fontSize=12;" parent="1" vertex="1">
          <mxGeometry x="350" y="248.5" width="143.5" height="51.5" as="geometry" />
        </mxCell>
        <mxCell id="1393" value="&lt;font color=&quot;#000000&quot; style=&quot;font-size: 12px;&quot;&gt;Thủ tục sự kiện &lt;br style=&quot;font-size: 12px;&quot;&gt;(trigger)&lt;/font&gt;" style="rounded=1;fillColor=#f5af58;strokeColor=none;strokeWidth=3;shadow=0;html=1;fontColor=#FFFFFF;fontSize=12;" parent="1" vertex="1">
          <mxGeometry x="570" y="200" width="120" height="40" as="geometry" />
        </mxCell>
        <mxCell id="1394" value="&lt;font color=&quot;#000000&quot; style=&quot;font-size: 12px;&quot;&gt;Các khung nhìn &lt;br style=&quot;font-size: 12px;&quot;&gt;(view)&lt;/font&gt;" style="rounded=1;fillColor=#f5af58;strokeColor=none;strokeWidth=3;shadow=0;html=1;fontColor=#FFFFFF;fontSize=12;" parent="1" vertex="1">
          <mxGeometry x="730" y="208.5" width="120" height="40" as="geometry" />
        </mxCell>
        <mxCell id="1395" value="&lt;font color=&quot;#000000&quot; style=&quot;font-size: 12px;&quot;&gt;Việc kiểm tra truy cập đồng thời đa phiên bản &lt;br style=&quot;font-size: 12px;&quot;&gt;(multiversion concurrency control)&lt;/font&gt;" style="rounded=1;fillColor=#f5af58;strokeColor=none;strokeWidth=3;shadow=0;html=1;fontColor=#FFFFFF;fontSize=12;" parent="1" vertex="1">
          <mxGeometry x="840" y="300" width="256.5" height="41.5" as="geometry" />
        </mxCell>
        <mxCell id="1402" value="" style="edgeStyle=none;endArrow=none;strokeWidth=3;strokeColor=#F5AF58;html=1;fontSize=12;" parent="1" source="1351" target="1390" edge="1">
          <mxGeometry x="3.5" y="21.5" width="100" height="100" as="geometry">
            <mxPoint x="3.5" y="121.5" as="sourcePoint" />
            <mxPoint x="103.5" y="21.5" as="targetPoint" />
          </mxGeometry>
        </mxCell>
        <mxCell id="1403" value="" style="edgeStyle=none;endArrow=none;strokeWidth=3;strokeColor=#F5AF58;html=1;fontSize=12;" parent="1" source="1351" target="1391" edge="1">
          <mxGeometry x="3.5" y="21.5" width="100" height="100" as="geometry">
            <mxPoint x="3.5" y="121.5" as="sourcePoint" />
            <mxPoint x="103.5" y="21.5" as="targetPoint" />
          </mxGeometry>
        </mxCell>
        <mxCell id="1404" value="" style="edgeStyle=none;endArrow=none;strokeWidth=3;strokeColor=#F5AF58;html=1;fontSize=12;" parent="1" source="1351" target="1392" edge="1">
          <mxGeometry x="3.5" y="21.5" width="100" height="100" as="geometry">
            <mxPoint x="3.5" y="121.5" as="sourcePoint" />
            <mxPoint x="103.5" y="21.5" as="targetPoint" />
          </mxGeometry>
        </mxCell>
        <mxCell id="1405" value="" style="edgeStyle=none;endArrow=none;strokeWidth=3;strokeColor=#F5AF58;html=1;fontSize=12;" parent="1" source="1351" target="1393" edge="1">
          <mxGeometry x="3.5" y="21.5" width="100" height="100" as="geometry">
            <mxPoint x="3.5" y="121.5" as="sourcePoint" />
            <mxPoint x="103.5" y="21.5" as="targetPoint" />
          </mxGeometry>
        </mxCell>
        <mxCell id="1406" value="" style="edgeStyle=none;endArrow=none;strokeWidth=3;strokeColor=#F5AF58;html=1;fontSize=12;" parent="1" source="1351" target="1394" edge="1">
          <mxGeometry x="3.5" y="21.5" width="100" height="100" as="geometry">
            <mxPoint x="3.5" y="121.5" as="sourcePoint" />
            <mxPoint x="103.5" y="21.5" as="targetPoint" />
          </mxGeometry>
        </mxCell>
        <mxCell id="1407" value="" style="edgeStyle=none;endArrow=none;strokeWidth=3;strokeColor=#F5AF58;html=1;fontSize=12;" parent="1" source="1351" target="1395" edge="1">
          <mxGeometry x="3.5" y="21.5" width="100" height="100" as="geometry">
            <mxPoint x="3.5" y="121.5" as="sourcePoint" />
            <mxPoint x="103.5" y="21.5" as="targetPoint" />
          </mxGeometry>
        </mxCell>
        <mxCell id="1412" value="&amp;nbsp;Lập danh mục: B-tree, Multicolumn, Expressions, Partial&lt;br style=&quot;font-size: 12px;&quot;&gt;&amp;nbsp;Lập danh mục nâng cao: GiST, SP-Gist, KNN Gist, GIN, BRIN, Bloom filters" style="rounded=1;fillColor=#f08e81;strokeColor=none;strokeWidth=3;shadow=0;html=1;fontColor=#FFFFFF;align=left;fontSize=12;" parent="1" vertex="1">
          <mxGeometry x="2182" y="-130" width="414" height="40" as="geometry" />
        </mxCell>
        <mxCell id="1415" value="UNIQUE, NOT NULL" style="rounded=1;fillColor=#f08e81;strokeColor=none;strokeWidth=3;shadow=0;html=1;fontColor=#FFFFFF;fontSize=12;" parent="1" vertex="1">
          <mxGeometry x="1850" y="-260" width="120" height="40" as="geometry" />
        </mxCell>
        <mxCell id="1416" value="Primary Keys" style="rounded=1;fillColor=#f08e81;strokeColor=none;strokeWidth=3;shadow=0;html=1;fontColor=#FFFFFF;fontSize=12;" parent="1" vertex="1">
          <mxGeometry x="1990" y="-310" width="120" height="40" as="geometry" />
        </mxCell>
        <mxCell id="1417" value="Foreign Keys" style="rounded=1;fillColor=#f08e81;strokeColor=none;strokeWidth=3;shadow=0;html=1;fontColor=#FFFFFF;fontSize=12;" parent="1" vertex="1">
          <mxGeometry x="2154.5" y="-320" width="120" height="40" as="geometry" />
        </mxCell>
        <mxCell id="1418" value="Ràng buộc loại trừ" style="rounded=1;fillColor=#f08e81;strokeColor=none;strokeWidth=3;shadow=0;html=1;fontColor=#FFFFFF;fontSize=12;" parent="1" vertex="1">
          <mxGeometry x="2240" y="-270" width="120" height="40" as="geometry" />
        </mxCell>
        <mxCell id="1419" value="Đồng quy, hiệu suất" style="rounded=1;fillColor=#f08e81;strokeColor=none;strokeWidth=3;shadow=0;html=1;fontColor=#FFFFFF;fontSize=12;" parent="1" vertex="1">
          <mxGeometry x="2329" y="-200" width="120" height="40" as="geometry" />
        </mxCell>
        <mxCell id="1421" value="Giao tác, Giao tác dạng nest (thông qua lưu điểm)" style="rounded=1;fillColor=#f08e81;strokeColor=none;strokeWidth=3;shadow=0;html=1;fontColor=#FFFFFF;fontSize=12;" parent="1" vertex="1">
          <mxGeometry x="2351" y="-10" width="289" height="40" as="geometry" />
        </mxCell>
        <mxCell id="1422" value="Trình lập kế hoạch / trình tối ưu hóa truy vấn phức tạp, quét index-only, thống kê số liệu trên nhiều cột." style="rounded=1;fillColor=#f08e81;strokeColor=none;strokeWidth=3;shadow=0;html=1;fontColor=#FFFFFF;fontSize=12;" parent="1" vertex="1">
          <mxGeometry x="2052.5" y="-70" width="574" height="40" as="geometry" />
        </mxCell>
        <mxCell id="1426" value="" style="edgeStyle=none;endArrow=none;strokeWidth=3;strokeColor=#F08E81;html=1;fontSize=12;" parent="1" source="1352" target="1415" edge="1">
          <mxGeometry x="31" y="106.5" width="100" height="100" as="geometry">
            <mxPoint x="31" y="206.5" as="sourcePoint" />
            <mxPoint x="131" y="106.5" as="targetPoint" />
          </mxGeometry>
        </mxCell>
        <mxCell id="1427" value="" style="edgeStyle=none;endArrow=none;strokeWidth=3;strokeColor=#F08E81;html=1;fontSize=12;" parent="1" source="1352" target="1416" edge="1">
          <mxGeometry x="31" y="106.5" width="100" height="100" as="geometry">
            <mxPoint x="31" y="206.5" as="sourcePoint" />
            <mxPoint x="131" y="106.5" as="targetPoint" />
          </mxGeometry>
        </mxCell>
        <mxCell id="1428" value="" style="edgeStyle=none;endArrow=none;strokeWidth=3;strokeColor=#F08E81;html=1;fontSize=12;" parent="1" source="1352" target="1417" edge="1">
          <mxGeometry x="31" y="106.5" width="100" height="100" as="geometry">
            <mxPoint x="31" y="206.5" as="sourcePoint" />
            <mxPoint x="131" y="106.5" as="targetPoint" />
          </mxGeometry>
        </mxCell>
        <mxCell id="1432" value="" style="edgeStyle=none;endArrow=none;strokeWidth=3;strokeColor=#F08E81;html=1;fontSize=12;" parent="1" source="1352" target="1422" edge="1">
          <mxGeometry x="31" y="106.5" width="100" height="100" as="geometry">
            <mxPoint x="31" y="206.5" as="sourcePoint" />
            <mxPoint x="131" y="106.5" as="targetPoint" />
          </mxGeometry>
        </mxCell>
        <mxCell id="1433" value="" style="edgeStyle=none;endArrow=none;strokeWidth=3;strokeColor=#F08E81;html=1;fontSize=12;" parent="1" source="1352" target="1421" edge="1">
          <mxGeometry x="31" y="106.5" width="100" height="100" as="geometry">
            <mxPoint x="31" y="206.5" as="sourcePoint" />
            <mxPoint x="131" y="106.5" as="targetPoint" />
          </mxGeometry>
        </mxCell>
        <mxCell id="1438" value="&lt;font style=&quot;font-size: 12px;&quot;&gt;&lt;font color=&quot;#000000&quot; style=&quot;font-size: 12px;&quot;&gt;Nguyên hàm&lt;br style=&quot;font-size: 12px;&quot;&gt;(Số nguyên, số, chuỗi, boolen)&lt;/font&gt;&lt;br style=&quot;font-size: 12px;&quot;&gt;&lt;/font&gt;" style="rounded=1;fillColor=#64BBE2;strokeColor=none;strokeWidth=3;shadow=0;html=1;fontColor=#FFFFFF;fontSize=12;" parent="1" vertex="1">
          <mxGeometry x="2229.75" y="750" width="324" height="76.5" as="geometry" />
        </mxCell>
        <mxCell id="1439" value="&lt;font style=&quot;font-size: 12px;&quot; color=&quot;#000000&quot;&gt;Cấu trúc&lt;br style=&quot;font-size: 12px;&quot;&gt;(Date/Time, Array, Phạm vi, UUID)&lt;/font&gt;" style="rounded=1;fillColor=#64BBE2;strokeColor=none;strokeWidth=3;shadow=0;html=1;fontColor=#FFFFFF;fontSize=12;" parent="1" vertex="1">
          <mxGeometry x="2265" y="850" width="319" height="76.5" as="geometry" />
        </mxCell>
        <mxCell id="1440" value="&lt;font style=&quot;font-size: 12px;&quot; color=&quot;#000000&quot;&gt;Document : JSON/JSONB, XML, Key-value (Hstore)&lt;/font&gt;" style="rounded=1;fillColor=#64BBE2;strokeColor=none;strokeWidth=3;shadow=0;html=1;fontColor=#FFFFFF;fontSize=12;" parent="1" vertex="1">
          <mxGeometry x="2165" y="960" width="419" height="43.5" as="geometry" />
        </mxCell>
        <mxCell id="1441" value="&lt;font style=&quot;font-size: 12px;&quot; color=&quot;#000000&quot;&gt;Tùy chỉnh: Composite, Các kiểu tùy chỉnh&lt;/font&gt;" style="rounded=1;fillColor=#64BBE2;strokeColor=none;strokeWidth=3;shadow=0;html=1;fontColor=#FFFFFF;fontSize=12;" parent="1" vertex="1">
          <mxGeometry x="2035" y="1120" width="379" height="48.5" as="geometry" />
        </mxCell>
        <mxCell id="1442" value="&lt;font color=&quot;#000000&quot; style=&quot;font-size: 12px;&quot;&gt;&lt;font style=&quot;font-size: 12px;&quot;&gt;Hình học :&amp;nbsp;&lt;/font&gt;Điểm, Đường thẳng, Vòng tròn, Đa giác&lt;/font&gt;&lt;font style=&quot;font-size: 12px;&quot; color=&quot;#000000&quot;&gt;&lt;br style=&quot;font-size: 12px;&quot;&gt;&lt;/font&gt;" style="rounded=1;fillColor=#64BBE2;strokeColor=none;strokeWidth=3;shadow=0;html=1;fontColor=#FFFFFF;fontSize=12;" parent="1" vertex="1">
          <mxGeometry x="2097.5" y="1034.25" width="409.5" height="50" as="geometry" />
        </mxCell>
        <mxCell id="1449" value="" style="edgeStyle=none;endArrow=none;strokeWidth=3;strokeColor=#64BBE2;html=1;entryX=0;entryY=0.5;entryDx=0;entryDy=0;fontSize=12;" parent="1" source="1353" target="1438" edge="1">
          <mxGeometry x="-24" y="196.5" width="100" height="100" as="geometry">
            <mxPoint x="-24" y="296.5" as="sourcePoint" />
            <mxPoint x="76" y="196.5" as="targetPoint" />
          </mxGeometry>
        </mxCell>
        <mxCell id="1450" value="" style="edgeStyle=none;endArrow=none;strokeWidth=3;strokeColor=#64BBE2;html=1;fontSize=12;" parent="1" source="1353" target="1439" edge="1">
          <mxGeometry x="-24" y="196.5" width="100" height="100" as="geometry">
            <mxPoint x="-24" y="296.5" as="sourcePoint" />
            <mxPoint x="76" y="196.5" as="targetPoint" />
          </mxGeometry>
        </mxCell>
        <mxCell id="1451" value="" style="edgeStyle=none;endArrow=none;strokeWidth=3;strokeColor=#64BBE2;html=1;fontSize=12;" parent="1" source="1353" target="1440" edge="1">
          <mxGeometry x="-24" y="196.5" width="100" height="100" as="geometry">
            <mxPoint x="-24" y="296.5" as="sourcePoint" />
            <mxPoint x="76" y="196.5" as="targetPoint" />
          </mxGeometry>
        </mxCell>
        <mxCell id="1452" value="" style="edgeStyle=none;endArrow=none;strokeWidth=3;strokeColor=#64BBE2;html=1;entryX=0;entryY=0.5;entryDx=0;entryDy=0;fontSize=12;" parent="1" source="1353" target="1442" edge="1">
          <mxGeometry x="-24" y="196.5" width="100" height="100" as="geometry">
            <mxPoint x="-24" y="296.5" as="sourcePoint" />
            <mxPoint x="76" y="196.5" as="targetPoint" />
          </mxGeometry>
        </mxCell>
        <mxCell id="1453" value="" style="edgeStyle=none;endArrow=none;strokeWidth=3;strokeColor=#64BBE2;html=1;entryX=0;entryY=0.5;entryDx=0;entryDy=0;fontSize=12;" parent="1" source="1353" target="1441" edge="1">
          <mxGeometry x="-24" y="196.5" width="100" height="100" as="geometry">
            <mxPoint x="-24" y="296.5" as="sourcePoint" />
            <mxPoint x="76" y="196.5" as="targetPoint" />
          </mxGeometry>
        </mxCell>
        <mxCell id="1458" value="Bảo mật cấp độ cột và hàng" style="rounded=1;fillColor=#a29dc5;strokeColor=none;strokeWidth=3;shadow=0;html=1;fontColor=#FFFFFF;fontSize=12;" parent="1" vertex="1">
          <mxGeometry x="1190" y="1390" width="176" height="40" as="geometry" />
        </mxCell>
        <mxCell id="1460" value="Xác thực: GSSAPI, SSPI, LDAP, SCRAM-SHA-256, Certificate và các hình thức khác" style="rounded=1;fillColor=#a29dc5;strokeColor=none;strokeWidth=3;shadow=0;html=1;fontColor=#FFFFFF;fontSize=12;" parent="1" vertex="1">
          <mxGeometry x="1581" y="1340" width="509" height="40" as="geometry" />
        </mxCell>
        <mxCell id="1461" value="Hệ thống kiểm soát truy cập mạnh mẽ" style="rounded=1;fillColor=#a29dc5;strokeColor=none;strokeWidth=3;shadow=0;html=1;fontColor=#FFFFFF;fontSize=12;" parent="1" vertex="1">
          <mxGeometry x="1425.5" y="1400" width="269" height="40" as="geometry" />
        </mxCell>
        <mxCell id="1463" value="" style="edgeStyle=none;endArrow=none;strokeWidth=3;strokeColor=#A29DC5;html=1;fontSize=12;" parent="1" source="1354" target="1460" edge="1">
          <mxGeometry x="251" y="-103.5" width="100" height="100" as="geometry">
            <mxPoint x="251" y="-3.5" as="sourcePoint" />
            <mxPoint x="351" y="-103.5" as="targetPoint" />
          </mxGeometry>
        </mxCell>
        <mxCell id="1465" value="" style="edgeStyle=none;endArrow=none;strokeWidth=3;strokeColor=#A29DC5;html=1;fontSize=12;" parent="1" source="1354" target="1458" edge="1">
          <mxGeometry x="251" y="-103.5" width="100" height="100" as="geometry">
            <mxPoint x="251" y="-3.5" as="sourcePoint" />
            <mxPoint x="351" y="-103.5" as="targetPoint" />
          </mxGeometry>
        </mxCell>
        <mxCell id="1469" value="Tìm kiếm văn bản đầy đủ" style="rounded=1;fillColor=#f5af58;strokeColor=none;strokeWidth=3;shadow=0;html=1;fontColor=#FFFFFF;fontSize=12;" parent="1" vertex="1">
          <mxGeometry x="440" y="1330" width="150" height="40" as="geometry" />
        </mxCell>
        <mxCell id="1470" value="PostGIS" style="rounded=1;fillColor=#f5af58;strokeColor=none;strokeWidth=3;shadow=0;html=1;fontColor=#FFFFFF;fontSize=12;" parent="1" vertex="1">
          <mxGeometry x="340" y="1270" width="99" height="40" as="geometry" />
        </mxCell>
        <mxCell id="1471" value="Ngôn ngữ thủ tục: PL / PGSQL, Perl, Python &lt;br style=&quot;font-size: 12px;&quot;&gt;(và nhiều ngôn ngữ khác)" style="rounded=1;fillColor=#f5af58;strokeColor=none;strokeWidth=3;shadow=0;html=1;fontColor=#FFFFFF;fontSize=12;" parent="1" vertex="1">
          <mxGeometry x="140" y="1190.75" width="286.5" height="38.5" as="geometry" />
        </mxCell>
        <mxCell id="1472" value="Phương pháp lưu trữ" style="rounded=1;fillColor=#f5af58;strokeColor=none;strokeWidth=3;shadow=0;html=1;fontColor=#FFFFFF;fontSize=12;" parent="1" vertex="1">
          <mxGeometry x="140" y="1110" width="120" height="40" as="geometry" />
        </mxCell>
        <mxCell id="1473" value="Trình wrapper dữ liệu ngoài: kết nối với các cơ sở dữ liệu hoặc luồng khác với giao diện SQL chuẩn" style="rounded=1;fillColor=#f5af58;strokeColor=none;strokeWidth=3;shadow=0;html=1;fontColor=#FFFFFF;fontSize=12;" parent="1" vertex="1">
          <mxGeometry x="51.879999999999995" y="1040" width="562.75" height="38.5" as="geometry" />
        </mxCell>
        <mxCell id="1474" value="Hỗ trợ các bộ ký tự quốc tế, ví dụ: thông qua ICU collations" style="rounded=1;fillColor=#f5af58;strokeColor=none;strokeWidth=3;shadow=0;html=1;fontColor=#FFFFFF;fontSize=12;" parent="1" vertex="1">
          <mxGeometry x="160" y="966.5" width="346.5" height="40" as="geometry" />
        </mxCell>
        <mxCell id="1481" value="" style="edgeStyle=none;endArrow=none;strokeWidth=3;strokeColor=#F5AF58;html=1;exitX=0.892;exitY=0.827;exitDx=0;exitDy=0;exitPerimeter=0;fontSize=12;" parent="1" source="p5eIivycjOICqXlBfG3N-1549" target="1469" edge="1">
          <mxGeometry x="243.5" y="39" width="100" height="100" as="geometry">
            <mxPoint x="1217.5070101604256" y="1189.4090755089182" as="sourcePoint" />
            <mxPoint x="343.5" y="39" as="targetPoint" />
          </mxGeometry>
        </mxCell>
        <mxCell id="1483" value="" style="edgeStyle=none;endArrow=none;strokeWidth=3;strokeColor=#F5AF58;html=1;exitX=0.766;exitY=0.926;exitDx=0;exitDy=0;exitPerimeter=0;fontSize=12;" parent="1" source="p5eIivycjOICqXlBfG3N-1549" target="1471" edge="1">
          <mxGeometry x="243.5" y="39" width="100" height="100" as="geometry">
            <mxPoint x="1198.1001376775798" y="1205.031136153244" as="sourcePoint" />
            <mxPoint x="343.5" y="39" as="targetPoint" />
          </mxGeometry>
        </mxCell>
        <mxCell id="1484" value="" style="edgeStyle=none;endArrow=none;strokeWidth=3;strokeColor=#F5AF58;html=1;exitX=0.646;exitY=0.984;exitDx=0;exitDy=0;exitPerimeter=0;fontSize=12;" parent="1" source="p5eIivycjOICqXlBfG3N-1549" target="1472" edge="1">
          <mxGeometry x="243.5" y="39" width="100" height="100" as="geometry">
            <mxPoint x="1181.6778480208368" y="1210.5422184681556" as="sourcePoint" />
            <mxPoint x="343.5" y="39" as="targetPoint" />
          </mxGeometry>
        </mxCell>
        <mxCell id="1485" value="" style="edgeStyle=none;endArrow=none;strokeWidth=3;strokeColor=#F5AF58;html=1;exitX=0.5;exitY=1;exitDx=0;exitDy=0;fontSize=12;" parent="1" source="p5eIivycjOICqXlBfG3N-1549" target="1473" edge="1">
          <mxGeometry x="243.5" y="39" width="100" height="100" as="geometry">
            <mxPoint x="1166.512603105502" y="1211.331958593306" as="sourcePoint" />
            <mxPoint x="343.5" y="39" as="targetPoint" />
          </mxGeometry>
        </mxCell>
        <mxCell id="1486" value="" style="edgeStyle=none;endArrow=none;strokeWidth=3;strokeColor=#F5AF58;html=1;exitX=0.309;exitY=0.967;exitDx=0;exitDy=0;exitPerimeter=0;fontSize=12;" parent="1" source="p5eIivycjOICqXlBfG3N-1549" target="1474" edge="1">
          <mxGeometry x="243.5" y="39" width="100" height="100" as="geometry">
            <mxPoint x="1140" y="1190" as="sourcePoint" />
            <mxPoint x="343.5" y="39" as="targetPoint" />
          </mxGeometry>
        </mxCell>
        <mxCell id="1514" style="edgeStyle=orthogonalEdgeStyle;rounded=0;html=1;exitX=0.75;exitY=0;entryX=0.75;entryY=0;startArrow=none;startFill=0;endArrow=block;endFill=1;jettySize=auto;orthogonalLoop=1;strokeColor=#12aab5;strokeWidth=6;fontSize=12;fontColor=#2F5B7C;" parent="1" edge="1">
          <mxGeometry relative="1" as="geometry">
            <mxPoint x="1611" y="371.5" as="sourcePoint" />
            <mxPoint x="1611" y="371.5" as="targetPoint" />
          </mxGeometry>
        </mxCell>
        <mxCell id="1515" value="PostGreSQL" style="ellipse;whiteSpace=wrap;html=1;shadow=0;fontFamily=Helvetica;fontSize=12;fontColor=#2F5B7C;align=center;strokeColor=#2F5B7C;strokeWidth=6;fillColor=#FFFFFF;fontStyle=1;gradientColor=none;" parent="1" vertex="1">
          <mxGeometry x="961" y="676.5" width="270" height="270" as="geometry" />
        </mxCell>
        <mxCell id="p5eIivycjOICqXlBfG3N-1549" value="&lt;font color=&quot;#000000&quot; style=&quot;background-color: rgb(255, 255, 255); font-size: 12px;&quot;&gt;Khả năng mở rộng&lt;/font&gt;" style="ellipse;whiteSpace=wrap;html=1;shadow=0;fontFamily=Helvetica;fontSize=12;fontColor=#FFFFFF;align=center;strokeWidth=3;fillColor=#3399FF;strokeColor=none;" parent="1" vertex="1">
          <mxGeometry x="690" y="1010" width="130" height="120" as="geometry" />
        </mxCell>
        <mxCell id="p5eIivycjOICqXlBfG3N-1551" value="Điều khiển đồng thời nhiều phiên bản (MVCC)" style="rounded=1;fillColor=#f08e81;strokeColor=none;strokeWidth=3;shadow=0;html=1;fontColor=#FFFFFF;fontSize=12;" parent="1" vertex="1">
          <mxGeometry x="2351" y="60" width="289" height="40" as="geometry" />
        </mxCell>
        <mxCell id="p5eIivycjOICqXlBfG3N-1552" value="Truy vấn đọc song song" style="rounded=1;fillColor=#f08e81;strokeColor=none;strokeWidth=3;shadow=0;html=1;fontColor=#FFFFFF;fontSize=12;" parent="1" vertex="1">
          <mxGeometry x="2490" y="120" width="150" height="40" as="geometry" />
        </mxCell>
        <mxCell id="p5eIivycjOICqXlBfG3N-1553" value="Phân vùng bảng" style="rounded=1;fillColor=#f08e81;strokeColor=none;strokeWidth=3;shadow=0;html=1;fontColor=#FFFFFF;fontSize=12;" parent="1" vertex="1">
          <mxGeometry x="2507" y="180" width="135" height="40" as="geometry" />
        </mxCell>
        <mxCell id="p5eIivycjOICqXlBfG3N-1555" value="Độ tin cậy, phục hồi sau thảm hoạ" style="rounded=1;fillColor=#f08e81;strokeColor=none;strokeWidth=3;shadow=0;html=1;fontColor=#FFFFFF;fontSize=12;" parent="1" vertex="1">
          <mxGeometry x="2414" y="300" width="210" height="40" as="geometry" />
        </mxCell>
        <mxCell id="p5eIivycjOICqXlBfG3N-1556" value="Ghi nhật ký ghi trước (Write-ahead Logging - WAL)" style="rounded=1;fillColor=#f08e81;strokeColor=none;strokeWidth=3;shadow=0;html=1;fontColor=#FFFFFF;fontSize=12;" parent="1" vertex="1">
          <mxGeometry x="2320" y="360" width="289" height="40" as="geometry" />
        </mxCell>
        <mxCell id="p5eIivycjOICqXlBfG3N-1557" value="Replication: Không đồng bộ, Đồng bộ, Logical" style="rounded=1;fillColor=#f08e81;strokeColor=none;strokeWidth=3;shadow=0;html=1;fontColor=#FFFFFF;fontSize=12;" parent="1" vertex="1">
          <mxGeometry x="2303.5" y="416.5" width="289" height="40" as="geometry" />
        </mxCell>
        <mxCell id="p5eIivycjOICqXlBfG3N-1558" value="" style="edgeStyle=none;endArrow=none;strokeWidth=3;strokeColor=#F08E81;html=1;entryX=0;entryY=1;entryDx=0;entryDy=0;exitX=0.957;exitY=0.3;exitDx=0;exitDy=0;exitPerimeter=0;fontSize=12;" parent="1" source="1352" target="p5eIivycjOICqXlBfG3N-1551" edge="1">
          <mxGeometry x="41" y="116.5" width="100" height="100" as="geometry">
            <mxPoint x="1810" y="380" as="sourcePoint" />
            <mxPoint x="1977.995126705653" y="190" as="targetPoint" />
          </mxGeometry>
        </mxCell>
        <mxCell id="p5eIivycjOICqXlBfG3N-1559" value="" style="edgeStyle=none;endArrow=none;strokeWidth=3;strokeColor=#F08E81;html=1;exitX=0.962;exitY=0.269;exitDx=0;exitDy=0;exitPerimeter=0;entryX=0;entryY=1;entryDx=0;entryDy=0;fontSize=12;" parent="1" source="1352" target="p5eIivycjOICqXlBfG3N-1552" edge="1">
          <mxGeometry x="51" y="126.5" width="100" height="100" as="geometry">
            <mxPoint x="1820.456008245128" y="391.2979711366497" as="sourcePoint" />
            <mxPoint x="1987.995126705653" y="200" as="targetPoint" />
          </mxGeometry>
        </mxCell>
        <mxCell id="p5eIivycjOICqXlBfG3N-1560" value="" style="edgeStyle=none;endArrow=none;strokeWidth=3;strokeColor=#F08E81;html=1;entryX=0;entryY=1;entryDx=0;entryDy=0;startArrow=none;fontSize=12;" parent="1" source="1352" target="p5eIivycjOICqXlBfG3N-1553" edge="1">
          <mxGeometry x="61" y="136.5" width="100" height="100" as="geometry">
            <mxPoint x="1830.456008245128" y="401.2979711366497" as="sourcePoint" />
            <mxPoint x="1997.995126705653" y="210" as="targetPoint" />
          </mxGeometry>
        </mxCell>
        <mxCell id="p5eIivycjOICqXlBfG3N-1561" value="" style="edgeStyle=none;endArrow=none;strokeWidth=3;strokeColor=#F08E81;html=1;exitX=1;exitY=0.5;exitDx=0;exitDy=0;entryX=0.5;entryY=1;entryDx=0;entryDy=0;fontSize=12;" parent="1" source="1352" target="p5eIivycjOICqXlBfG3N-1554" edge="1">
          <mxGeometry x="71" y="146.5" width="100" height="100" as="geometry">
            <mxPoint x="1840.456008245128" y="411.2979711366497" as="sourcePoint" />
            <mxPoint x="2007.995126705653" y="220" as="targetPoint" />
          </mxGeometry>
        </mxCell>
        <mxCell id="p5eIivycjOICqXlBfG3N-1562" value="" style="edgeStyle=none;endArrow=none;strokeWidth=3;strokeColor=#F08E81;html=1;exitX=0.997;exitY=0.572;exitDx=0;exitDy=0;exitPerimeter=0;entryX=0;entryY=0.5;entryDx=0;entryDy=0;fontSize=12;" parent="1" source="1352" target="p5eIivycjOICqXlBfG3N-1555" edge="1">
          <mxGeometry x="81" y="156.5" width="100" height="100" as="geometry">
            <mxPoint x="1850.456008245128" y="421.2979711366497" as="sourcePoint" />
            <mxPoint x="2017.995126705653" y="230" as="targetPoint" />
          </mxGeometry>
        </mxCell>
        <mxCell id="p5eIivycjOICqXlBfG3N-1563" value="" style="edgeStyle=none;endArrow=none;strokeWidth=3;strokeColor=#F08E81;html=1;exitX=0.953;exitY=0.711;exitDx=0;exitDy=0;exitPerimeter=0;entryX=0;entryY=0.5;entryDx=0;entryDy=0;fontSize=12;" parent="1" source="1352" target="p5eIivycjOICqXlBfG3N-1556" edge="1">
          <mxGeometry x="91" y="166.5" width="100" height="100" as="geometry">
            <mxPoint x="1860.456008245128" y="431.2979711366497" as="sourcePoint" />
            <mxPoint x="2027.995126705653" y="240" as="targetPoint" />
          </mxGeometry>
        </mxCell>
        <mxCell id="p5eIivycjOICqXlBfG3N-1564" value="" style="edgeStyle=none;endArrow=none;strokeWidth=3;strokeColor=#F08E81;html=1;exitX=1;exitY=1;exitDx=0;exitDy=0;entryX=0;entryY=0.25;entryDx=0;entryDy=0;fontSize=12;" parent="1" source="1352" target="p5eIivycjOICqXlBfG3N-1557" edge="1">
          <mxGeometry x="101" y="176.5" width="100" height="100" as="geometry">
            <mxPoint x="1870.456008245128" y="441.2979711366497" as="sourcePoint" />
            <mxPoint x="2037.995126705653" y="250" as="targetPoint" />
          </mxGeometry>
        </mxCell>
        <mxCell id="p5eIivycjOICqXlBfG3N-1566" value="&lt;div style=&quot;font-size: 12px;&quot;&gt;Khôi phục điểm-theo-thời gian (Point-in-time-recovery - PITR), active standbys&lt;/div&gt;" style="rounded=1;fillColor=#f08e81;strokeColor=none;strokeWidth=3;shadow=0;html=1;fontColor=#FFFFFF;fontSize=12;" parent="1" vertex="1">
          <mxGeometry x="2130" y="480" width="440" height="40" as="geometry" />
        </mxCell>
        <mxCell id="p5eIivycjOICqXlBfG3N-1567" value="Không gian bảng" style="rounded=1;fillColor=#f08e81;strokeColor=none;strokeWidth=3;shadow=0;html=1;fontColor=#FFFFFF;fontSize=12;" parent="1" vertex="1">
          <mxGeometry x="2320" y="546.5" width="143.5" height="40" as="geometry" />
        </mxCell>
        <mxCell id="p5eIivycjOICqXlBfG3N-1568" value="" style="edgeStyle=none;endArrow=none;strokeWidth=3;strokeColor=#F08E81;html=1;exitX=0.712;exitY=0.964;exitDx=0;exitDy=0;entryX=0;entryY=0.5;entryDx=0;entryDy=0;exitPerimeter=0;fontSize=12;" parent="1" source="1352" target="p5eIivycjOICqXlBfG3N-1566" edge="1">
          <mxGeometry x="111" y="186.5" width="100" height="100" as="geometry">
            <mxPoint x="1813.4264068711927" y="468.9264068711932" as="sourcePoint" />
            <mxPoint x="1860" y="511.5" as="targetPoint" />
          </mxGeometry>
        </mxCell>
        <mxCell id="p5eIivycjOICqXlBfG3N-1569" value="" style="edgeStyle=none;endArrow=none;strokeWidth=3;strokeColor=#F08E81;html=1;exitX=0.406;exitY=0.988;exitDx=0;exitDy=0;entryX=0;entryY=0.5;entryDx=0;entryDy=0;exitPerimeter=0;fontSize=12;" parent="1" source="1352" target="p5eIivycjOICqXlBfG3N-1567" edge="1">
          <mxGeometry x="121" y="196.5" width="100" height="100" as="geometry">
            <mxPoint x="1823.4264068711927" y="478.9264068711932" as="sourcePoint" />
            <mxPoint x="1870" y="521.5" as="targetPoint" />
          </mxGeometry>
        </mxCell>
        <mxCell id="p5eIivycjOICqXlBfG3N-1554" value="Tất cả các mức độ giao dịch độc lập được xác định trong tiêu chuẩn SQL, bao gồm cả Serializable" style="rounded=1;fillColor=#f08e81;strokeColor=none;strokeWidth=3;shadow=0;html=1;fontColor=#FFFFFF;fontSize=12;" parent="1" vertex="1">
          <mxGeometry x="2090" y="240" width="550" height="40" as="geometry" />
        </mxCell>
        <mxCell id="p5eIivycjOICqXlBfG3N-1570" value="" style="edgeStyle=none;endArrow=none;strokeWidth=3;strokeColor=#F08E81;html=1;exitX=0.981;exitY=0.361;exitDx=0;exitDy=0;exitPerimeter=0;entryX=0.25;entryY=1;entryDx=0;entryDy=0;fontSize=12;" parent="1" source="1352" target="p5eIivycjOICqXlBfG3N-1554" edge="1">
          <mxGeometry x="61" y="136.5" width="100" height="100" as="geometry">
            <mxPoint x="1818.7199999999998" y="399.8199999999997" as="sourcePoint" />
            <mxPoint x="2459" y="226.5" as="targetPoint" />
          </mxGeometry>
        </mxCell>
        <mxCell id="EeNC3uTI6yrcS8-O0AN2-1542" value="&lt;span style=&quot;color: rgb(51 , 51 , 51) ; font-family: &amp;#34;cambria&amp;#34; , &amp;#34;arial&amp;#34; , &amp;#34;helvetica&amp;#34; , sans-serif&quot;&gt;&lt;font style=&quot;font-size: 6px&quot;&gt;Tính toàn vẹn của dữ liệu là sự đảm bảo tính chính xác và nhất quán của dữ liệu trong suốt vòng đời của dữ liệu (từ khi dữ liệu được ghi lại cho đến khi bị hủy). Nói một cách dễ hiểu, tính toàn vẹn của dữ liệu có nghĩa là bạn đã ghi lại dữ liệu như dự định và dữ liệu đó không bị thay đổi một cách vô ý trong suốt vòng đời của nó. Khái niệm thì đơn giản, nhưng thực tế thì không. Tính toàn vẹn của dữ liệu là một thành phần quan trọng để tạo hoặc thiết kế bất kỳ hệ thống phần mềm nào sẽ lưu trữ hoặc di chuyển dữ liệu.&lt;/font&gt;&lt;/span&gt;" style="rounded=1;whiteSpace=wrap;html=1;fillColor=#66FFFF;" parent="1" vertex="1">
          <mxGeometry x="1294.5" y="208.5" width="291" height="83" as="geometry" />
        </mxCell>
      </root>
    </mxGraphModel>
  </diagram>
</mxfile>
